/* XPM */
static char *result[] = {
/* columns rows colors chars-per-pixel */
"16 16 59 1 ",
"  c #091224",
". c #171C26",
"X c #011234",
"o c #011235",
"O c #01143A",
"+ c #1A253D",
"@ c #021640",
"# c #021A4A",
"$ c #021A4B",
"% c #021E57",
"& c #021F5A",
"* c #03205D",
"= c #03256B",
"- c #032872",
"; c #042A7A",
": c #042C7F",
"> c #042D7F",
", c #36425C",
"< c #344566",
"1 c #354667",
"2 c #38496C",
"3 c #41547A",
"4 c #042C80",
"5 c #042D81",
"6 c #04308A",
"7 c #05369B",
"8 c #08389D",
"9 c #2351AD",
"0 c #456DBF",
"q c #5075C3",
"w c #5176C4",
"e c #738DC3",
"r c #728DC5",
"t c #738EC4",
"y c #7591CA",
"u c #5B8CEE",
"i c #608DEF",
"p c #6A92E6",
"a c #7499EA",
"s c #7699EB",
"d c #6294F8",
"f c #6998F8",
"g c #6999F8",
"h c #719CF1",
"j c #739DF1",
"k c #769DF2",
"l c #779DF2",
"z c #75A1F9",
"x c #76A2F9",
"c c #76A2FC",
"v c #76A3FC",
"b c #A0B8EE",
"n c #A0B9EF",
"m c #A2BEF7",
"M c #A4BFF7",
"N c #A4C0F9",
"B c #FCFCFD",
"V c white",
"C c None",
/* pixels */
"CCCCC4oyro4CCCCC",
"CCC>t.XOOX.t>CCC",
"CC&,O#%**%#O,&CC",
"C>,@%=;00;=%@,>C",
"CtO%-67uu76-%OtC",
":.$=678dd976=#.:",
"XX%;777ii777;%Xo",
"1O*5jg7sa7gh5*O3",
"<O*5ufkbnlgu5*O2",
"XX%;p7N77N7p;%Xo",
":.$=67czxv76=$.:",
"CtO%-67Mm76-%OeC",
"C>,@VB;wq;=V@,>C",
"CC&,O$%**%$O,&CC",
"CCC>t.XOOX.e>CCC",
"CCCCC:X+ X:CCCCC"
};
