/* XPM */
static char *result[] = {
/* columns rows colors chars-per-pixel */
"64 64 197 2 ",
"   c #05060A",
".  c #07090D",
"X  c #040406",
"o  c #050A12",
"O  c #090C12",
"+  c #020A1A",
"@  c #080F1B",
"#  c #0F131B",
"$  c #10131A",
"%  c #020D24",
"&  c #010E29",
"*  c #01102F",
"=  c #081226",
"-  c #161B25",
";  c #181D28",
":  c #181C27",
">  c #011233",
",  c #01153C",
"<  c #111D35",
"1  c #19202B",
"2  c #1D2432",
"3  c #17243E",
"4  c #212938",
"5  c #021641",
"6  c #021846",
"7  c #021A4B",
"8  c #021D53",
"9  c #031F59",
"0  c #03205D",
"q  c #0A2458",
"w  c #212F4A",
"e  c #273043",
"r  c #2D374D",
"t  c #2E3A54",
"y  c #323D54",
"u  c #032263",
"i  c #03256B",
"p  c #0C2863",
"a  c #1D366A",
"s  c #032771",
"d  c #042975",
"f  c #042B7B",
"g  c #0A2E78",
"h  c #0F317B",
"j  c #243C6A",
"k  c #253F74",
"l  c #34415A",
"z  c #384660",
"x  c #3B4965",
"c  c #354769",
"v  c #25417A",
"b  c #404F6D",
"n  c #40506D",
"m  c #475777",
"M  c #42567D",
"N  c #4A5B7E",
"B  c #042D83",
"V  c #042E8A",
"C  c #04318C",
"Z  c #0A3388",
"A  c #052F90",
"S  c #053393",
"D  c #053997",
"F  c #05369B",
"G  c #0A3A9D",
"H  c #073896",
"J  c #113784",
"K  c #0D3DA0",
"L  c #234998",
"P  c #2B509C",
"I  c #1846A6",
"U  c #375BA7",
"Y  c #2B57B1",
"T  c #3E66B9",
"R  c #3C63B7",
"E  c #3E61A8",
"W  c #4E6084",
"Q  c #506287",
"!  c #506388",
"~  c #566A93",
"^  c #586C95",
"/  c #526A99",
"(  c #5C729D",
")  c #5B73A4",
"_  c #5671AD",
"`  c #426ABA",
"'  c #4467B3",
"]  c #526FB1",
"[  c #4A70BF",
"{  c #5371AF",
"}  c #657DAC",
"|  c #637FBA",
" . c #446DC3",
".. c #4D74C4",
"X. c #4B76CF",
"o. c #5579C5",
"O. c #577BC5",
"+. c #4A76D0",
"@. c #4E78D1",
"#. c #507EDC",
"$. c #6881B1",
"%. c #6E88BB",
"&. c #6A84B9",
"*. c #708ABE",
"=. c #7087BC",
"-. c #5E83CC",
";. c #5582DD",
":. c #5A85DC",
">. c #738EC3",
",. c #7692CB",
"<. c #7994CC",
"1. c #6589D5",
"2. c #688CD9",
"3. c #7D9BD6",
"4. c #7E9CDA",
"5. c #7695D7",
"6. c #6689D1",
"7. c #5686E5",
"8. c #5E86E3",
"9. c #5D8AE3",
"0. c #5C8AEA",
"q. c #5E8FF1",
"w. c #5F91F5",
"e. c #638CE3",
"r. c #608CED",
"t. c #638AE4",
"y. c #6390EE",
"u. c #6B94EB",
"i. c #6C94EA",
"p. c #759AEC",
"a. c #7599E6",
"s. c #618FF1",
"d. c #6393F5",
"f. c #6B97F4",
"g. c #6B98F4",
"h. c #6496FB",
"j. c #6598FE",
"k. c #6B9BFC",
"l. c #749EF4",
"z. c #729FFB",
"x. c #7EA2ED",
"c. c #7BA2F3",
"v. c #74A2FC",
"b. c #7AA4FB",
"n. c #7EA8FD",
"m. c #8092B9",
"M. c #819FDC",
"N. c #859FD6",
"B. c #889DCA",
"V. c #8DA2D1",
"C. c #82A1DE",
"Z. c #8EA7DC",
"A. c #9CADD3",
"S. c #94ABDC",
"D. c #92A6D2",
"F. c #90A3CD",
"G. c #B5BBC8",
"H. c #A2ACC3",
"J. c #809FE0",
"K. c #84A3E2",
"L. c #89A7E5",
"P. c #8CAAE7",
"I. c #82A4EC",
"U. c #8DACEB",
"Y. c #93ADE4",
"T. c #90AEED",
"R. c #9CB5EB",
"E. c #97B2E9",
"W. c #82A5F2",
"Q. c #85A8F2",
"!. c #8AADF6",
"~. c #80A7F9",
"^. c #85ACFC",
"/. c #8AAEFA",
"(. c #8DB1FB",
"). c #95B3F5",
"_. c #9DB9F5",
"`. c #92B4F9",
"'. c #9BBBFB",
"]. c #99B7F7",
"[. c #A7BCEA",
"{. c #A3BDF5",
"}. c #A2BEFA",
"|. c #BAC1CF",
" X c #BAC2D2",
".X c #A6C1F7",
"XX c #A5C1FB",
"oX c #A8C3FB",
"OX c #AAC3F6",
"+X c #B5CCFA",
"@X c #C1C9D9",
"#X c #D8DDE7",
"$X c #ECEEF2",
"%X c #F3F4F7",
"&X c #F5F6F8",
"*X c #FFFFFF",
"=X c None",
/* pixels */
"=X=X=X=X=X=X=X=X=X=X=X=X=X=X=X=X=X=X=X=X=X=X=X=X=X=XB C B f f d d f f B C B =X=X=X=X=X=X=X=X=X=X=X=X=X=X=X=X=X=X=X=X=X=X=X=X=X=X",
"=X=X=X=X=X=X=X=X=X=X=X=X=X=X=X=X=X=X=X=X=X=XA B s u 8 6 , * * * * > > , 6 8 0 d B S =X=X=X=X=X=X=X=X=X=X=X=X=X=X=X=X=X=X=X=X=X=X",
"=X=X=X=X=X=X=X=X=X=X=X=X=X=X=X=X=X=X=X=XB i 8 , % c U.K.3.,.>.>.>.>.<.3.C.L.3 % , 8 u B =X=X=X=X=X=X=X=X=X=X=X=X=X=X=X=X=X=X=X=X",
"=X=X=X=X=X=X=X=X=X=X=X=X=X=X=X=X=XV f 9 5 % <.4.%.} ^ W m b b x x x n m W ~ } >.3.,.% , 9 f C =X=X=X=X=X=X=X=X=X=X=X=X=X=X=X=X=X",
"=X=X=X=X=X=X=X=X=X=X=X=X=X=X=X=Xf 9 , 3 M.%.( W x r 4 ; # % % & = % = $ ; 4 r x N ( =.C.w > 9 f =X=X=X=X=X=X=X=X=X=X=X=X=X=X=X=X",
"=X=X=X=X=X=X=X=X=X=X=X=X=X=XC u 5 < N.} ! z e - % * > * > > , > > > > > > > * % - e x ! } 4.3 , u C =X=X=X=X=X=X=X=X=X=X=X=X=X=X",
"=X=X=X=X=X=X=X=X=X=X=X=X=Xf 7 % K.} W l 2 % & > , , , , , 5 5 5 5 5 5 , , , , > > > % 2 l W $.K.% 7 f =X=X=X=X=X=X=X=X=X=X=X=X=X",
"=X=X=X=X=X=X=X=X=X=X=XS i , ) >.~ z 2 % > > , , , 5 5 5 6 6 6 6 6 7 6 6 6 5 5 , , > > > & 2 z ~ >.) , i S =X=X=X=X=X=X=X=X=X=X=X",
"=X=X=X=X=X=X=X=X=X=XS 0 > L.$.m e @ > > , , 5 5 6 7 7 7 7 8 7 q a 7 7 8 7 7 7 6 5 5 , , > > # e m $.L.* 0 S =X=X=X=X=X=X=X=X=X=X",
"=X=X=X=X=X=X=X=X=XC 0 & C.( x ; * > , , 5 6 7 7 8 8 8 9 9 9 9 A.F.0 q 0 8 8 8 8 7 6 6 5 , , > & 1 x ( M.& 0 C =X=X=X=X=X=X=X=X=X",
"=X=X=X=X=X=X=X=XS 0 % 3.^ y # > > , 5 6 7 7 8 8 9 9 u 9 u u F._ { B.u 0 0 0 9 9 8 8 7 6 5 5 , > > $ y ~ 3.& 9 S =X=X=X=X=X=X=X=X",
"=X=X=X=X=X=X=XC u & 3.~ y @ > > , 5 7 7 8 8 9 9 u u u u i D.| U U | F.i i u u u 0 9 9 8 7 7 6 , > > @ t ~ 3.& u S =X=X=X=X=X=X=X",
"=X=X=X=X=X=X=Xi > M.~ y @ > , , 6 7 7 8 9 0 u u u i s s g <.' U U ' <.h d i i u u u 0 0 8 7 7 5 , , > @ y ~ M.> i =X=X=X=X=X=X=X",
"=X=X=X=X=X=Xf , L.( y @ > > 5 6 7 8 9 9 u u i i s d d f S.O.` R R ' O.S.f d d d i i u u 0 8 8 7 6 5 , & @ y ( L., f =X=X=X=X=X=X",
"=X=X=X=X=XV 7 W } x # > , 5 6 7 8 9 9 u i i s d f f B L 3... . . . ...5.P f f f d d i u u u 0 7 7 7 , , > # x } M 7 C =X=X=X=X=X",
"=X=X=X=X=Xu % >.m 1 & , , 6 7 8 9 9 i i s d f f B B B Y.2.+.+.+.+.+.+.1.E.B B B f f d d i u 0 0 8 7 6 , > > 1 m >.% u =X=X=X=X=X",
"=X=X=X=Xf , K.~ e * > , 5 7 7 0 0 u i s d f B B V A S Y.:.#.#.#.#.#.;.:.P.S V V B B f d s i u u 9 8 7 6 , > * e ~ K., f =X=X=X=X",
"=X=X=XD 9 = $.z @ > , 5 7 8 0 0 u i d f f B C C S H ` I.9.7.7.0.0.0.7.9.x.O.D D C V B B f d i u 0 9 7 7 5 , > # l $.= 0 D =X=X=X",
"=X=X=Xf > N.W 2 > , , 7 7 0 0 u i d d B B C S S F F {.l.s.w.w.w.w.w.d.0.l.{.F F D A V B f f s i u 0 8 8 6 5 , > 2 W 4.> f =X=X=X",
"=X=X=X9 % } l % > , 6 7 8 0 u i d f f B C S F D F F }.b.j.j.j.j.j.j.j.h.v.}.F F F S D C B f f s i u 0 8 7 6 , > % l } = 0 =X=X=X",
"=X=XB 5 C.! 2 > , 5 7 8 9 u i s f f B C S S F F F F }.b.h.h.h.h.w.w.j.j.v.XXF F F F F S C B B d d i u 0 7 7 5 , > 2 W C., B =X=X",
"=X=Xi & %.x @ > , 5 7 8 0 u i d f B C S F F F F F F oXb.h.h.h.h.j.j.h.h.v.XXF F F F F F S V B f d i u u 8 7 6 , > @ x &.% i =X=X",
"=XS 8 ! ( e & , 5 7 7 0 u i d d B B S F F F F F F F }.b.d.h.h.d.d.d.w.h.b.oXF F F F F F D C C B f d u u 0 8 6 5 , & e ( / 8 A =X",
"=XB , 3.N - > , 6 7 8 0 u i d f V C S F F F F F F F T.^.h.s.d.s.w.d.d.d.~.{.F F F F F F F S C B f d i u 0 8 7 5 , > - N N., B =X",
"=Xs % %.x @ > 5 6 7 9 u i s f B C S F F F F F F F F G `.f.s.s.s.q.s.s.f.`.K F F F F F F F F S V B f s i u 8 7 6 5 > @ x %.& i =X",
"=Xu + } r * > 5 7 8 9 u i d f B C S F F F F F F F D F }.l.s.s.s.q.s.s.l.}.F F F F F F F F F F V B f d i u 0 8 6 5 , & r } + u =X",
"B 8 } ~ 4 > , 5 7 8 9 u i f f C S F F F F F F F F F F R.W.y.r.r.0.r.r.W._.F F F F F F F F F F S V f f i u 0 8 7 5 , > 4 ~ %.8 B ",
"C 6 K.W ; > , 6 7 8 u i s f B C S F F F F F F F F F F F ).y.r.0.r.r.u.).F F F F F F F F F F F D C B f s u u 0 7 6 , > - W K.6 C ",
"B , 4.m # > 5 6 8 9 u i d f B C S G .X'.'.'.XXG F F F F {.p.r.t.0.r.p.{.F F F F G .X'.'.'..XI S C B f d i 0 0 7 6 , > # m 4., B ",
"f > <.x @ > , 6 8 9 u i d f B S ` ).b.v.k.v.n.'.a.F F F 5.Q.t.t.t.t.W.L.F F F 1._.n.v.k.v.c.T.-.S B f d i u 0 7 7 5 > O x <.> B ",
"f > >.x @ , , 6 7 9 u i d B B S E.u.d.j.j.h.d.l.).2.D F F ).i.t.8.t.T.F F F o.].l.d.h.j.j.d.u.T.H C f d i u 0 7 6 , > o x >.> f ",
"f & >.x + > 5 7 8 9 u i d f V [.a.0.w.j.j.h.d.d.l._.F F F {.a.#.t.p.{.F F F _.l.d.d.h.j.j.w.9.i.[.B B d i u 0 8 7 5 > o x >.* d ",
"f & >.x + , 5 7 8 9 u i d f V Y.9.0.w.j.h.h.h.s.d.W.{.F F 5.I.t.8.J.M.F F {.W.d.d.d.h.h.j.w.0.9.P.V f d i u 9 8 6 5 > o x >.* f ",
"f > >.x @ > 5 6 8 9 u i d B J K.7.7.w.j.h.h.h.d.s.u.].F F F T.t.t.T.F F F ).p.d.d.d.h.h.j.w.7.:.C.L f d i u 9 8 6 5 > o x >.& f ",
"f > ,.b O > , 6 7 9 u i d f P M.;.7.q.j.k.z.b.l.g.f.Q.R.F F _.a.u.{.F F P.Q.d.f.z.b.v.k.j.w.7.;.4.E f d i u 9 8 6 5 > O x ,.> B ",
"B , 3.m # > , 6 8 9 u i d f Z C.:.7.q.z./.}.oX}.).l.l.}.F F {.p.p.{.F F {.l.l.!.}.oXXX(.k.w.7.:.K.C f d u u 9 8 6 5 > # N 3., B ",
"C 6 C.W : > , 6 7 8 u i d f B Y.2.7.r.^.'.F F F Y ].b._.F F {.I.W.{.F F {.W.`. .F F F U.^.w.;.2.Y.B f i i 9 8 7 5 , > ; W K.6 C ",
"B 8 } ^ 4 > , 6 7 8 0 u i d f C.J.9.u._.F F F F F {.!.).F F 1.Q.Q.L.F F ).!.{.F F F F F '.u.2.a.Z.f f i u u 9 7 5 , > 4 ^ ) 8 B ",
"=Xu + } r & , 5 7 8 9 u i d f B R.x.I..XF F F F F F '.).R F  .!.^.O.F I ].}.F F F F F D .Xx.L.[.B f d i u 9 8 6 5 , & r } + 0 =X",
"=Xs % %.x o > , 6 7 9 u i s f B B | OX+XF F F F F F oX).L.F R !.!. .F 5.].}.F F F F F S +XOX[ C B f s i u 8 8 6 , > o x %.& s =X",
"=XB , 3.N - > , 5 7 8 0 u i d f B C S I F F F F F F XX(.XXF R !.!.Y F {.(.oXF F F F F F I S C B f d i u 0 8 7 5 , > - N 3., B =X",
"=XS 8 M ( e > > , 7 8 0 u i d d B C S F F F F oX'.`.^.v.~.(./.c.l.(.`.~.b.^.(.'.+XF F F F S C B f d i u 9 8 7 5 > > e ( c 8 V =X",
"=X=Xi % =.x o > , 6 7 8 0 u i d f B C S F F F '.b.k.k.k.k.k.h.h.h.h.k.f.k.k.k.n.'.F F F S C B f d i u 0 8 7 5 , > o x %.% i =X=X",
"=X=XB , C.! 1 > , 5 7 8 0 0 i s d f B C S F D oX(.^.(.^.^.n.k.j.j.z.~.^.^.^.^.!..XF F D C B f d d u u 9 8 7 5 , > 2 ! M.5 B =X=X",
"=X=X=X9 + } l o > , 6 7 8 0 u i i f B B C S S ....-.1.2.a.oX(.k.z./.{.T.L.a.2.-...S S C B B f s i u 0 8 7 6 , > o y } + 9 =X=X=X",
"=X=X=Xf > 4.W 2 > , , 7 8 8 0 u i s f f B C C S F F F F H F (.k.h.`.F F F F F F S C C B f f d i u 0 8 8 7 5 , * 2 W 3., f =X=X=X",
"=X=X=XD 0 + $.l O > , 5 7 8 8 u u i s f f B C C S S F F F 5.c.0.r.I.L.F F S S S C C B f f d i u 9 q 8 7 5 , > O x $.+ 9 V =X=X=X",
"=X=X=X=Xf , 3.^ e & > , 6 7 8 9 u i i s f f B B C C S S H T.t.#.#.t.U.H S S S V C B f d i i u u 9 8 7 6 , > & e ~ 5., f =X=X=X=X",
"=X=X=X=X=Xu % >.m ; > , , 6 7 8 *X*Xv *X*Xm.*XJ B B V L Y.1.@.+.+.@.2.Y.U B B B *X*X) *Xi u %X9 &XG.7 , , * 1 m >.% u =X=X=X=X=X",
"=X=X=X=X=XC 7 @ $.x # * , , 6 7 *X&Xk @X*X*Xs d f f B [.4.o. . . . .o.5.[.B f f d *X*Xu #X0 %X8 |.G.5 , > $ x } @ 7 C =X=X=X=X=X",
"=X=X=X=X=X=Xd , %.) y O * , 5 6 *X*Xj H.*X*Xi &Xs d d f S.<...` T ..,.S.f d d s *Xi *Xu  X8 %X|.*X*X, > . y ) } , f =X=X=X=X=X=X",
"=X=X=X=X=X=X=Xi * 4.^ y . > , , $X*Xj *X$Xa *Xu i i i s s g ,.' ' ,.h d s i i i *X*Xp *X8 8 %X6 , G.>   y ~ M.> i =X=X=X=X=X=X=X",
"=X=X=X=X=X=X=XS u & 3.~ y O > , , 5 7 7 8 8 9 9 u u u i i i D.] ] N.i i u i u 0 0 9 8 8 7 7 5 , , > O y ~ 3.& u S =X=X=X=X=X=X=X",
"=X=X=X=X=X=X=X=XC 9 & 3.~ y $ & > , 5 6 7 7 8 8 8 9 9 u u u / =.=./ u 0 u 0 9 9 8 8 7 7 6 , , > * # y ^ 3.% 9 S =X=X=X=X=X=X=X=X",
"=X=X=X=X=X=X=X=X=XC 9 & M.) x ; & > , , 5 6 7 7 8 8 8 8 8 9 9 A.A.9 9 9 8 8 8 7 7 7 6 5 , , > & ; x ( M.& 9 C =X=X=X=X=X=X=X=X=X",
"=X=X=X=X=X=X=X=X=X=XC u > } } m e . > > , , 5 5 6 6 7 8 8 8 8 8 q 8 8 7 7 7 7 7 5 , , , > > O e m } } > 0 S =X=X=X=X=X=X=X=X=X=X",
"=X=X=X=X=X=X=X=X=X=X=XS i , + >.~ l 2   > > , , , 5 5 6 6 7 6 7 6 6 6 6 6 5 5 , , , > >   2 z ~ >.+ , i S =X=X=X=X=X=X=X=X=X=X=X",
"=X=X=X=X=X=X=X=X=X=X=X=X=Xf 7 % ,.$.W l 2 . & * , > , , , 5 , , 5 5 5 , , , > , > & . 2 l W $.<.% 7 d =X=X=X=X=X=X=X=X=X=X=X=X=X",
"=X=X=X=X=X=X=X=X=X=X=X=X=X=XV u , + 4.} ! x e - . * * > > > > , > > > > > > * . - e z ! } 4.+ , u C =X=X=X=X=X=X=X=X=X=X=X=X=X=X",
"=X=X=X=X=X=X=X=X=X=X=X=X=X=X=X=Xf 0 > + 3.%.( N x r 4 1 $ O   X     O $ : 4 r x N ( =.4.+ > 9 f =X=X=X=X=X=X=X=X=X=X=X=X=X=X=X=X",
"=X=X=X=X=X=X=X=X=X=X=X=X=X=X=X=X=XS f 9 5 % w N.%.} ~ W m x x x x x x m W ~ } %.4.t & , 9 f D =X=X=X=X=X=X=X=X=X=X=X=X=X=X=X=X=X",
"=X=X=X=X=X=X=X=X=X=X=X=X=X=X=X=X=X=X=X=XB u 8 , & o c 4.3.<.,.>.>.>.<.3.N.c + % , 8 i B =X=X=X=X=X=X=X=X=X=X=X=X=X=X=X=X=X=X=X=X",
"=X=X=X=X=X=X=X=X=X=X=X=X=X=X=X=X=X=X=X=X=X=XS B s u 0 5 , > * * > > > , 6 8 u i B V =X=X=X=X=X=X=X=X=X=X=X=X=X=X=X=X=X=X=X=X=X=X",
"=X=X=X=X=X=X=X=X=X=X=X=X=X=X=X=X=X=X=X=X=X=X=X=X=X=Xf C B f f d f d B B C B =X=X=X=X=X=X=X=X=X=X=X=X=X=X=X=X=X=X=X=X=X=X=X=X=X=X"
};
