/* XPM */
static char *result[] = {
/* columns rows colors chars-per-pixel */
"32 32 114 2 ",
"   c #02070F",
".  c #020710",
"X  c #030915",
"o  c #010A1C",
"O  c #010C24",
"+  c #010F2B",
"@  c #01102F",
"#  c #0B162C",
"$  c #181E2A",
"%  c #011233",
"&  c #02153D",
"*  c #14213A",
"=  c #021743",
"-  c #021846",
";  c #021A4C",
":  c #021D54",
">  c #031F58",
",  c #03205D",
"<  c #0B265C",
"1  c #293245",
"2  c #303B52",
"3  c #032365",
"4  c #03266F",
"5  c #042873",
"6  c #042B7C",
"7  c #173470",
"8  c #38455F",
"9  c #384560",
"0  c #3F4F6C",
"q  c #404F6C",
"w  c #45587F",
"e  c #042E85",
"r  c #042F88",
"t  c #04308B",
"y  c #0E378C",
"u  c #133C8E",
"i  c #053394",
"p  c #05369B",
"a  c #0B3B9E",
"s  c #1342A3",
"d  c #2752AD",
"f  c #3A60B1",
"g  c #425D93",
"h  c #4E648F",
"j  c #576B93",
"k  c #566E9C",
"l  c #6D7B97",
"z  c #5E74A0",
"x  c #5F77A8",
"c  c #496BB0",
"v  c #436BBE",
"b  c #4D6FBA",
"n  c #4C70BD",
"m  c #5A75B2",
"M  c #4C73C3",
"N  c #4771CA",
"B  c #597ECE",
"V  c #6D80A7",
"C  c #6A80AF",
"Z  c #7585A7",
"A  c #6D87B9",
"S  c #5F89DE",
"D  c #6083CD",
"F  c #7B92C5",
"G  c #698BD4",
"H  c #7D99D3",
"J  c #7E9CD9",
"K  c #5583E2",
"L  c #5E89E6",
"P  c #5F8BEC",
"I  c #618AE5",
"U  c #6D95E8",
"Y  c #7395E7",
"T  c #739BEF",
"R  c #608FF1",
"E  c #6393F5",
"W  c #6894F2",
"Q  c #6396FB",
"!  c #6F9FFB",
"~  c #729BF2",
"^  c #709FFA",
"/  c #77A1F4",
"(  c #78A1F4",
")  c #74A2FD",
"_  c #7AA6FC",
"`  c #889FD3",
"'  c #809EDA",
"]  c #88A0D3",
"[  c #82A1DE",
"{  c #98AEDC",
"}  c #84A2E0",
"|  c #8AA9EC",
" . c #9BB3E6",
".. c #9DB7ED",
"X. c #9FB8EE",
"o. c #86AAF5",
"O. c #81AAFC",
"+. c #8AAFFB",
"@. c #8FB0F6",
"#. c #8CB2FE",
"$. c #95B3F4",
"%. c #9AB6F4",
"&. c #9EB9F2",
"*. c #93B4F9",
"=. c #98B8FB",
"-. c #A6BBE9",
";. c #A1BCF4",
":. c #A2BEFA",
">. c #AEC2ED",
",. c #A6C0F6",
"<. c #A7C2FA",
"1. c #AAC5FD",
"2. c #FFFFFF",
"3. c None",
/* pixels */
"3.3.3.3.3.3.3.3.3.3.3.3.t 5 > : : > 5 r 3.3.3.3.3.3.3.3.3.3.3.3.",
"3.3.3.3.3.3.3.3.3.r : O } A z j j z A } O : t 3.3.3.3.3.3.3.3.3.",
"3.3.3.3.3.3.3.i ; | z 9 $ + + % % @ + $ 9 z | ; i 3.3.3.3.3.3.3.",
"3.3.3.3.3.3.4 * z 1 @ % & & - = = = & & % + 1 z * 5 3.3.3.3.3.3.",
"3.3.3.3.3., } q + & & - ; : : > < : ; ; - = % + q } , 3.3.3.3.3.",
"3.3.3.3., H 2 % & - ; : > 3 3 m m 3 3 > > ; - & % 2 H , 3.3.3.3.",
"3.3.3.4 [ 2 % & ; : , 3 5 5 ' f f ` 5 4 3 > > ; & % 2 } 4 3.3.3.",
"3.3.i # q % & ; : 3 5 5 e e B N N B e e 6 4 3 > ; & % q # i 3.3.",
"3.3.; z + & ; > 3 5 6 r i -.B K K K ..i r 6 5 3 > ; & + z ; 3.3.",
"3.t J 1 % - : 3 5 6 r i p *.Q Q Q E @.p i t 6 5 3 : - % 1 J t 3.",
"3.: l @ = ; > 4 e r p p p #.Q Q Q Q #.p p p r e 4 3 ; = @ z : 3.",
"3.O 9 % ; > 3 6 e p p p p =.E E E E =.p p p p r 5 3 > - % 8 O 3.",
"r } $ & ; > 4 6 i p p p p :.R R R R <.p p p p r e 4 > ; & $ } t ",
"5 A O & : 3 5 e i p p p p p ~ P P ~ p p p p p p e 5 3 : & O A 4 ",
"> z @ = : 3 6 r d +.O.:.p p $.L L $.p p :.O.+.M r 5 3 : = @ z > ",
": j % - : 3 6 r U Q Q E %.p J I L } p =.E Q Q U i 5 3 : = % j : ",
": j % = : 4 6 >.K Q Q E W J p Y Y p D W E Q Q K -.6 3 : = @ j : ",
"> z + = : 3 5 -.B Q O.@.~ $.p | | p %.W *.O.Q K  .6 3 , = @ z , ",
"5 A o = ; 3 5 y L ) p p N o.p %.%.p o.M p p / S u 5 3 ; & o A 4 ",
"r [ $ & ; > 5 6  .;.p p p *.p :.&.p %.p p p ;. .6 4 , ; & $ [ t ",
"3.O 9 % - : 4 5 r p p &.1.+.:.$.*.<.+.1.;.p i t 6 3 , - % 8 O 3.",
"3.: z @ & : , 4 6 r p ,.) ) ^ Q Q ! ) ) X.p t 6 4 , ; = @ z , 3.",
"3.t x 1 % - : 3 5 e t i p p p _ _ p p p i t e 4 3 : = % 1 k e 3.",
"3.3.; z X & ; : 3 5 6 r i p a I I s p i t 6 5 3 , ; & X z ; 3.3.",
"3.3.i o 0 % & ; : 2.g 2.6 c G N N G H 6 x 2.7 : 2.& % 0 o i 3.3.",
"3.3.3.4 [ 2 % & l 2.Z 2.4 5 { b b { 5 4 Z 2.: ; 2.@ 2 ' 4 3.3.3.",
"3.3.3.3., H 2 % & - ; : , 3 3 F F 3 3 , , ; ; & @ 2 H , 3.3.3.3.",
"3.3.3.3.3., H 0 X % = - ; : : : : : : ; - = %   0 J , 3.3.3.3.3.",
"3.3.3.3.3.3.4 o z 1 + % & & & = = = & & % @ 1 z o 4 3.3.3.3.3.3.",
"3.3.3.3.3.3.3.i ; w z 8 $ X @ @ @ @ X $ 8 z h - i 3.3.3.3.3.3.3.",
"3.3.3.3.3.3.3.3.3.t : O ' A z j j z A J O : t 3.3.3.3.3.3.3.3.3.",
"3.3.3.3.3.3.3.3.3.3.3.3.t 4 , : : , 4 t 3.3.3.3.3.3.3.3.3.3.3.3."
};
